<mxfile host="app.diagrams.net" modified="2023-10-28T00:08:02.519Z" agent="Mozilla/5.0 (Macintosh; Intel Mac OS X 10_15_7) AppleWebKit/537.36 (KHTML, like Gecko) Chrome/118.0.0.0 Safari/537.36" etag="DtFgy9I9Etg3FBsHN4JD" version="22.0.8" type="device">
  <diagram name="Page-1" id="u_VnsBWBYhwkrqQv2ytk">
    <mxGraphModel dx="1306" dy="770" grid="1" gridSize="10" guides="1" tooltips="1" connect="1" arrows="1" fold="1" page="1" pageScale="1" pageWidth="850" pageHeight="1100" math="0" shadow="0">
      <root>
        <mxCell id="0" />
        <mxCell id="1" parent="0" />
        <mxCell id="7oXHpIidxfNM3pCjyfbW-15" value="" style="rounded=0;whiteSpace=wrap;html=1;fillColor=#d5e8d4;strokeColor=#82b366;strokeWidth=2;" parent="1" vertex="1">
          <mxGeometry x="35" y="66" width="120" height="160" as="geometry" />
        </mxCell>
        <mxCell id="7oXHpIidxfNM3pCjyfbW-16" value="Data Archive&lt;br&gt;Cluster" style="text;html=1;strokeColor=none;fillColor=none;align=center;verticalAlign=middle;rounded=0;fontStyle=1;fontColor=#6c8ebf;whiteSpace=wrap;labelBackgroundColor=none;" parent="1" vertex="1">
          <mxGeometry x="344" y="226" width="120" height="39" as="geometry" />
        </mxCell>
        <mxCell id="7oXHpIidxfNM3pCjyfbW-29" value="" style="rounded=0;whiteSpace=wrap;html=1;fillColor=#dae8fc;strokeColor=#6c8ebf;strokeWidth=2;" parent="1" vertex="1">
          <mxGeometry x="344" y="65" width="120" height="160" as="geometry" />
        </mxCell>
        <mxCell id="7oXHpIidxfNM3pCjyfbW-30" value="Active Workload&lt;br&gt;Cluster" style="text;html=1;strokeColor=none;fillColor=none;align=center;verticalAlign=middle;whiteSpace=wrap;rounded=0;fontStyle=1;fontColor=#81b365;labelBackgroundColor=none;" parent="1" vertex="1">
          <mxGeometry x="35" y="226" width="120" height="39" as="geometry" />
        </mxCell>
        <mxCell id="7oXHpIidxfNM3pCjyfbW-71" value="Hub" style="shape=image;verticalLabelPosition=bottom;labelBackgroundColor=none;verticalAlign=top;aspect=fixed;imageAspect=0;image=data:image/png,iVBORw0KGgoAAAANSUhEUgAAANkAAADnCAYAAACTzvOrAAAACXBIWXMAABYlAAAWJQFJUiTwAAAGx2lUWHRYTUw6Y29tLmFkb2JlLnhtcAAAAAAAPD94cGFja2V0IGJlZ2luPSLvu78iIGlkPSJXNU0wTXBDZWhpSHpyZVN6TlRjemtjOWQiPz4gPHg6eG1wbWV0YSB4bWxuczp4PSJhZG9iZTpuczptZXRhLyIgeDp4bXB0az0iQWRvYmUgWE1QIENvcmUgNi4wLWMwMDYgNzkuZGFiYWNiYiwgMjAyMS8wNC8xNC0wMDozOTo0NCAgICAgICAgIj4gPHJkZjpSREYgeG1sbnM6cmRmPSJodHRwOi8vd3d3LnczLm9yZy8xOTk5LzAyLzIyLXJkZi1zeW50YXgtbnMjIj4gPHJkZjpEZXNjcmlwdGlvbiByZGY6YWJvdXQ9IiIgeG1sbnM6eG1wPSJodHRwOi8vbnMuYWRvYmUuY29tL3hhcC8xLjAvIiB4bWxuczpkYz0iaHR0cDovL3B1cmwub3JnL2RjL2VsZW1lbnRzLzEuMS8iIHhtbG5zOnBob3Rvc2hvcD0iaHR0cDovL25zLmFkb2JlLmNvbS9waG90b3Nob3AvMS4wLyIgeG1sbnM6eG1wTU09Imh0dHA6Ly9ucy5hZG9iZS5jb20veGFwLzEuMC9tbS8iIHhtbG5zOnN0RXZ0PSJodHRwOi8vbnMuYWRvYmUuY29tL3hhcC8xLjAvc1R5cGUvUmVzb3VyY2VFdmVudCMiIHhtcDpDcmVhdG9yVG9vbD0iQWRvYmUgUGhvdG9zaG9wIDIyLjQgKE1hY2ludG9zaCkiIHhtcDpDcmVhdGVEYXRlPSIyMDIzLTAxLTE0VDExOjA2OjM2LTA4OjAwIiB4bXA6TW9kaWZ5RGF0ZT0iMjAyMy0xMC0yNlQwNTozMTo1NC0wNzowMCIgeG1wOk1ldGFkYXRhRGF0ZT0iMjAyMy0xMC0yNlQwNTozMTo1NC0wNzowMCIgZGM6Zm9ybWF0PSJpbWFnZS9wbmciIHBob3Rvc2hvcDpDb2xvck1vZGU9IjMiIHBob3Rvc2hvcDpJQ0NQcm9maWxlPSJzUkdCIElFQzYxOTY2LTIuMSIgeG1wTU06SW5zdGFuY2VJRD0ieG1wLmlpZDo2YTlkMDdjOC1kZDU3LTQ2ZWYtYjI4Mi1kODkwMmY1YTg2ODYiIHhtcE1NOkRvY3VtZW50SUQ9ImFkb2JlOmRvY2lkOnBob3Rvc2hvcDo2Y2I5MWNmZS0xNDk1LTFjNDAtODUwZi0wMjUzNDE2M2Q1ZjEiIHhtcE1NOk9yaWdpbmFsRG9jdW1lbnRJRD0ieG1wLmRpZDo0OTdkY2JmMS1iZTFjLTQwMzItOTk4My0wYjY4NDliY2E1NmQiPiA8eG1wTU06SGlzdG9yeT4gPHJkZjpTZXE+IDxyZGY6bGkgc3RFdnQ6YWN0aW9uPSJjcmVhdGVkIiBzdEV2dDppbnN0YW5jZUlEPSJ4bXAuaWlkOjQ5N2RjYmYxLWJlMWMtNDAzMi05OTgzLTBiNjg0OWJjYTU2ZCIgc3RFdnQ6d2hlbj0iMjAyMy0wMS0xNFQxMTowNjozNi0wODowMCIgc3RFdnQ6c29mdHdhcmVBZ2VudD0iQWRvYmUgUGhvdG9zaG9wIDIyLjQgKE1hY2ludG9zaCkiLz4gPHJkZjpsaSBzdEV2dDphY3Rpb249InNhdmVkIiBzdEV2dDppbnN0YW5jZUlEPSJ4bXAuaWlkOjdjMTZkZjhmLWQ4MzMtNGY1OC05ZGQxLTczZjNjY2IwNzI4ZCIgc3RFdnQ6d2hlbj0iMjAyMy0xMC0yNlQwNToyNjowNS0wNzowMCIgc3RFdnQ6c29mdHdhcmVBZ2VudD0iQWRvYmUgUGhvdG9zaG9wIDIyLjQgKE1hY2ludG9zaCkiIHN0RXZ0OmNoYW5nZWQ9Ii8iLz4gPHJkZjpsaSBzdEV2dDphY3Rpb249InNhdmVkIiBzdEV2dDppbnN0YW5jZUlEPSJ4bXAuaWlkOjZhOWQwN2M4LWRkNTctNDZlZi1iMjgyLWQ4OTAyZjVhODY4NiIgc3RFdnQ6d2hlbj0iMjAyMy0xMC0yNlQwNTozMTo1NC0wNzowMCIgc3RFdnQ6c29mdHdhcmVBZ2VudD0iQWRvYmUgUGhvdG9zaG9wIDIyLjQgKE1hY2ludG9zaCkiIHN0RXZ0OmNoYW5nZWQ9Ii8iLz4gPC9yZGY6U2VxPiA8L3htcE1NOkhpc3Rvcnk+IDwvcmRmOkRlc2NyaXB0aW9uPiA8L3JkZjpSREY+IDwveDp4bXBtZXRhPiA8P3hwYWNrZXQgZW5kPSJyIj8+Ac96QwAABVZJREFUeNrt3bFrnHUcx/H8OUKXOkjHLjXQqaKlxCGDNSoExSBU6FAIFBIHXWoKwaodIkXRJcQgTqUcRS0ZQtKKWiwBqTG95C5X45ITv/pc5lwen4cjz/O71wfe4x3kyfNa7vlxN3L7+WdC/6+4+pKUuxFoIBNkkAkyyCTIIBNkkAkyQSbIIBNkkAkyQSbIIBNkkEmQQSbIIBNkffvl3Zfj8dyVQuV5/5ULp6L55Xzhstf3e//V8dOxs/jpocXanYgflqrZsN/Uc5MH/5+iZa+vA7L9zY0ourzIyiwPstoOsnLXDzLIIIMMMsgggwwyyCCDDDLIIIMMMsgggyxtZJ6TeU7mOZkTH058yLEqyAQZZBJkkAkyyASZIBNkkAkyyAQZOJAJMsgEGWQSZJAJMsgEmSATZJBpOJB1GsvRbTWTLfbaEe0tpdjMWD2Q9W5EszoOMjPIIDPIIDODzAwyyAwyyMzSRrY+MZp0MT918M9Qmjnx4cSHnPiATIIMMkEGmSCDTDpGZJufzEZr+bNkiwd3I1a+VYp5TmbmORlkBhlkZpCZQQaZQQaZGWRmkJXo1ysXY2P2rWSLbz6K+OI9pZhT+E58yIkPyCTIIBNkkAkyyNw4ggwyQQaZIBNkggwyQQaZBBlkGjiyxtkT4ECmQXXj0u5IREgaYC6CBJkEmSTIJMikdJE9fOf8o/uvjT5V/uLz2dX46v070pEtXf/Yw2jPyeTEB2SCDDIJMsgEGWSCTJAJMsgEGWSCTJAJMsgEGWQSZJAJMsgEWf+e3LoW+5sbhcrz/isXTkV3e7Nw2ev7vf/q+Ono7mwdWvzZjmj9Uc2G/aaem4zobBcve30dkGVYii4vsjLLg6y2g6zc9YMMMsgggwwyyCCDDDLIIIMMMsgggwwyyCBLG9m988/1btQi5UX28PJ44fIgezT9+qHF4ocRC9PVDLKIpevFqwsyJz4kyCATZJAJMsgkyCATZJAJMkEmyCATZJAJMnAgE2SQCTLIJMggE2SQCbK8rU+MJl3MT0XMjCnV6oCs22qGWS0HmRlkkBlkkJlBZgYZZAYZZGZpI+s0lnvQUi322hHtLaVYXZA58SFBBpkgg0yQQSZBBpkgg0yQ+QjfR/g+wvcw2syJDzPIIDODzAwyyAwyyMwgM4PMV8L5SjhfCefEhxMfcqwKMkEmyAQZZIIMMgkyyAQZZIIMMgkyyAQZZIJMkKksssbZE+BApkF149LuSERIGmAuggSZBJkkyCTIpHSRff/Cs/9kH+Mrf3Htjf3so1npyG5d/dnDaM/J5MQHZIIMMgkyyAQZZIJMkAkyyAQZZIJMkAkyyAQZZBJkkAkyyARZ/1pfL0S3+Xuhvjt38sj3X3v1TO/XPIuWvb7f+//09ovxd2fn0OKvpxGd7Wo2NzncN3X291fs+g3m52z/w1J0eZGVWR5ktR1klbt+kEEGGWSQQQYZZJBBBhlkkEEGGWSQQQYZZBVClkEpUx5kZTsKWb9iYfrgn1HVhh1Zxa6fEx9OfMixKsgEGWQSZJAJMsgEmSATZJAJMsgEmSATZJAJMsgkyCATZJAJMsikY0W2dvFM/PjmuWSLm5cjPnhFKVYXZPtPHodZLQeZGWSQGWSQmUFmBhlkBhlkZmkj21m82YOWarHbjGj+phRz4sOJDznxAZkEGWSCDDJBBpkbR8eMbH1iNOlifipiZkypVoufTmo1PW+xeg4yM8ggM8ggM4PMDDLIDDLIzNJG1mks96ClWuy1I9pbSrG6IHPiQ4IMMkEGmSCDTIIMMkEGmSATZIIMMkEGmSADBzJBBpkgg0yCDDIdT/8CDb1keCNKG9sAAAAASUVORK5CYII=;fontStyle=1" parent="1" vertex="1">
          <mxGeometry x="364" y="98" width="80" height="85.16" as="geometry" />
        </mxCell>
        <mxCell id="7oXHpIidxfNM3pCjyfbW-80" value="" style="endArrow=classic;html=1;rounded=0;fillColor=#dae8fc;strokeColor=#6c8ebf;strokeWidth=2;entryX=1.015;entryY=0.62;entryDx=0;entryDy=0;entryPerimeter=0;" parent="1" edge="1">
          <mxGeometry width="50" height="50" relative="1" as="geometry">
            <mxPoint x="344" y="171" as="sourcePoint" />
            <mxPoint x="134.99999999999994" y="171.20000000000005" as="targetPoint" />
          </mxGeometry>
        </mxCell>
        <mxCell id="7oXHpIidxfNM3pCjyfbW-81" value="Create Portal Relationship&lt;br&gt;From Archive Cluster&lt;br&gt;to Active Cluster" style="edgeLabel;html=1;align=center;verticalAlign=middle;resizable=0;points=[];fontSize=12;labelBackgroundColor=#f8f8f8;fontStyle=1;fontColor=#6c8ebf;" parent="7oXHpIidxfNM3pCjyfbW-80" vertex="1" connectable="0">
          <mxGeometry x="0.2798" y="-2" relative="1" as="geometry">
            <mxPoint x="39" y="3" as="offset" />
          </mxGeometry>
        </mxCell>
        <mxCell id="7oXHpIidxfNM3pCjyfbW-82" value="" style="endArrow=classic;html=1;rounded=0;fillColor=#d5e8d4;strokeColor=#82b366;strokeWidth=2;exitX=1;exitY=0.25;exitDx=0;exitDy=0;entryX=0;entryY=0.231;entryDx=0;entryDy=0;entryPerimeter=0;" parent="1" edge="1">
          <mxGeometry width="50" height="50" relative="1" as="geometry">
            <mxPoint x="155" y="114" as="sourcePoint" />
            <mxPoint x="344" y="112.96000000000004" as="targetPoint" />
          </mxGeometry>
        </mxCell>
        <mxCell id="7oXHpIidxfNM3pCjyfbW-83" value="Replicate Data Set&lt;br&gt;to Archive Cluster" style="edgeLabel;html=1;align=center;verticalAlign=middle;resizable=0;points=[];fontSize=12;labelBackgroundColor=#f8f8f8;fontStyle=1;fontColor=#81b365;" parent="7oXHpIidxfNM3pCjyfbW-82" vertex="1" connectable="0">
          <mxGeometry x="0.2798" y="-2" relative="1" as="geometry">
            <mxPoint x="-26" y="1" as="offset" />
          </mxGeometry>
        </mxCell>
        <mxCell id="7oXHpIidxfNM3pCjyfbW-78" value="Spoke" style="shape=image;verticalLabelPosition=bottom;labelBackgroundColor=none;verticalAlign=top;aspect=fixed;imageAspect=0;image=data:image/png,iVBORw0KGgoAAAANSUhEUgAAANkAAADnCAYAAACTzvOrAAAACXBIWXMAABYlAAAWJQFJUiTwAAAF6mlUWHRYTUw6Y29tLmFkb2JlLnhtcAAAAAAAPD94cGFja2V0IGJlZ2luPSLvu78iIGlkPSJXNU0wTXBDZWhpSHpyZVN6TlRjemtjOWQiPz4gPHg6eG1wbWV0YSB4bWxuczp4PSJhZG9iZTpuczptZXRhLyIgeDp4bXB0az0iQWRvYmUgWE1QIENvcmUgNi4wLWMwMDYgNzkuZGFiYWNiYiwgMjAyMS8wNC8xNC0wMDozOTo0NCAgICAgICAgIj4gPHJkZjpSREYgeG1sbnM6cmRmPSJodHRwOi8vd3d3LnczLm9yZy8xOTk5LzAyLzIyLXJkZi1zeW50YXgtbnMjIj4gPHJkZjpEZXNjcmlwdGlvbiByZGY6YWJvdXQ9IiIgeG1sbnM6eG1wPSJodHRwOi8vbnMuYWRvYmUuY29tL3hhcC8xLjAvIiB4bWxuczpkYz0iaHR0cDovL3B1cmwub3JnL2RjL2VsZW1lbnRzLzEuMS8iIHhtbG5zOnBob3Rvc2hvcD0iaHR0cDovL25zLmFkb2JlLmNvbS9waG90b3Nob3AvMS4wLyIgeG1sbnM6eG1wTU09Imh0dHA6Ly9ucy5hZG9iZS5jb20veGFwLzEuMC9tbS8iIHhtbG5zOnN0RXZ0PSJodHRwOi8vbnMuYWRvYmUuY29tL3hhcC8xLjAvc1R5cGUvUmVzb3VyY2VFdmVudCMiIHhtcDpDcmVhdG9yVG9vbD0iQWRvYmUgUGhvdG9zaG9wIDIyLjQgKE1hY2ludG9zaCkiIHhtcDpDcmVhdGVEYXRlPSIyMDIzLTAxLTE0VDExOjA2OjM2LTA4OjAwIiB4bXA6TW9kaWZ5RGF0ZT0iMjAyMy0xMC0yNlQwNToyNjowNS0wNzowMCIgeG1wOk1ldGFkYXRhRGF0ZT0iMjAyMy0xMC0yNlQwNToyNjowNS0wNzowMCIgZGM6Zm9ybWF0PSJpbWFnZS9wbmciIHBob3Rvc2hvcDpDb2xvck1vZGU9IjMiIHBob3Rvc2hvcDpJQ0NQcm9maWxlPSJzUkdCIElFQzYxOTY2LTIuMSIgeG1wTU06SW5zdGFuY2VJRD0ieG1wLmlpZDo3YzE2ZGY4Zi1kODMzLTRmNTgtOWRkMS03M2YzY2NiMDcyOGQiIHhtcE1NOkRvY3VtZW50SUQ9InhtcC5kaWQ6NDk3ZGNiZjEtYmUxYy00MDMyLTk5ODMtMGI2ODQ5YmNhNTZkIiB4bXBNTTpPcmlnaW5hbERvY3VtZW50SUQ9InhtcC5kaWQ6NDk3ZGNiZjEtYmUxYy00MDMyLTk5ODMtMGI2ODQ5YmNhNTZkIj4gPHhtcE1NOkhpc3Rvcnk+IDxyZGY6U2VxPiA8cmRmOmxpIHN0RXZ0OmFjdGlvbj0iY3JlYXRlZCIgc3RFdnQ6aW5zdGFuY2VJRD0ieG1wLmlpZDo0OTdkY2JmMS1iZTFjLTQwMzItOTk4My0wYjY4NDliY2E1NmQiIHN0RXZ0OndoZW49IjIwMjMtMDEtMTRUMTE6MDY6MzYtMDg6MDAiIHN0RXZ0OnNvZnR3YXJlQWdlbnQ9IkFkb2JlIFBob3Rvc2hvcCAyMi40IChNYWNpbnRvc2gpIi8+IDxyZGY6bGkgc3RFdnQ6YWN0aW9uPSJzYXZlZCIgc3RFdnQ6aW5zdGFuY2VJRD0ieG1wLmlpZDo3YzE2ZGY4Zi1kODMzLTRmNTgtOWRkMS03M2YzY2NiMDcyOGQiIHN0RXZ0OndoZW49IjIwMjMtMTAtMjZUMDU6MjY6MDUtMDc6MDAiIHN0RXZ0OnNvZnR3YXJlQWdlbnQ9IkFkb2JlIFBob3Rvc2hvcCAyMi40IChNYWNpbnRvc2gpIiBzdEV2dDpjaGFuZ2VkPSIvIi8+IDwvcmRmOlNlcT4gPC94bXBNTTpIaXN0b3J5PiA8L3JkZjpEZXNjcmlwdGlvbj4gPC9yZGY6UkRGPiA8L3g6eG1wbWV0YT4gPD94cGFja2V0IGVuZD0iciI/Plpl9xkAAAUCSURBVHja7d0xaxNhAMfh+wSuipMg7qKbi/kEbsWMIp2cCg4uIkVQSqeKOlStdhCxcBSE4iBVUlFbKFILUh2UkKVDhLSLgovntbOmbxJC33vz/OE3NgdHnqXvhctOPn538dST9xMK7+jd5Xp2Pa9JAZ3Ozi5u7NRefSkU3omHb4vy5kkhNSCDTJBBJsggkyCDTJBBJsgEmSCDTJBBJsgEmSCDTJBBJkEGmSqPbOrzdjH//UdfhV6j388PvUa3v5/52Com32xFmS91Htv9Gw6yT52fRb8LvcYgG/bnH+Ygy2O7f5BBBhlkkEEGGWSQQQYZZJBBBhlkkEEGGWTOyZyTOScboXMyT3xIkEEmyCATZJBJkEEmyCATZIJMkEEmyCATZJBBJsggE2SQSZBBJsggE2SCTJEgy1ud/R9uptra9m7RaLaVYCPxy2izxH5ZDpkZZGaQQWaQQWYGmRlkkBlkDqMdRssTH5AJMkEmyCATZJBJkEGm6iMb5K0uVSjmt7poazTe6uKczJyTQWYGmRlkkBlkkJlBZgYZZAZZlMjGV5vFxHor2epLm0VtbkUJ5okPT3zIEx+QSZBBJsggE2SQQSbIIBNkkAkyQSbIIBNkkEmQQSbIIFMKyLLyi6MeKpFl5c2TwoIMMkEGmardsXvL2fH7r9VDR6Zf+uIIMsgEGWQaIWQ3yi/OvMIrkc2UN29SCuiSczLnZHIYDZkgg0yCDDJBBpkgE2SCDDJBBpkgE2SCDDJBBpkEGWSCDDJB1r281dl/22Y/9fI2z2Feo9vfr23vFo1mO8p8qfPY7l98r7MNvcYgG/bnJ/Y61srlndGQQQYZZJBBBhlkkEEGGWSQQQYZZJBBBhlk/218tVlMrLf6KvQa/X5+6DW6/X19abOoza1EGWR5bPfPEx+e+JDHqiATZJBJkEEmyCATZIJMkEEmyCATZIJMkEEmyCCTIINMkEEmyCDz5RFkkClpZIP8aNMssR+9QmYGmRlkkBlkkJlBZgYZZAZZKq9OqkIxvzpJ7dF4dZLDaAkyyAQZZIIMMgkyyAQZZILMv/D9C9+/8B1Gm3niwwwyyMwgM4MMMoMMMjPIzCCTw2hBBpkgg0yQCTJBBpkgg0yCDDJBBpkgg0yCDDJBBpkgE2SCDDLFjywrvzjqoRJZVt48KSzIIBNkkKnajT99kI09W1AP1WfvZGO3r0oHdnnqCmSQCTLIlACyr+UXZ1fhlci+lTewIR1UiexRdn7xwx9nX87JNJzO3JzegQwyQQaZIINMggwyQQaZIBNkggwyQQaZIBNkggwyQQaZBBlkqjyyvNXZf9tmP/XyNs9hXqPb369t7xaNZjvKfLHzqO7f0JAN8jrb0GsMsmF/fmKvY61cMd0/yCCDDDLIIIMMMsgggwwyyCCDDDLIIIMMMofRDqPliQ/IBJkgE2SQCTLIJMggE2SQCTJBJsggE2SQCTJBJsggE2SQCTLIIBNkkAmyfzW+2iwm1lvJVl/aLGpzK0qwkfjRpllKP3qFzAwyM8ggM8ggM4PMDDLIDLKEXp1UhWJ+dZLao/HqJE98SJBBJsggE2SQSZBBJsggE2TOycw5GWRmkJlBBpkZZGaQQWaQQWaWEDJP4ctT+A6jHUbLEx+QCTLIJMggE2SQCTJBJsggE2SQCTLIIBNkkAkyyCTIINMhIbvw/MWvPWgK79zswu+9mycd1IVb1zb+Ahy1l8wUVqd/AAAAAElFTkSuQmCC;fontStyle=1" parent="1" vertex="1">
          <mxGeometry x="55" y="98" width="80" height="85.15" as="geometry" />
        </mxCell>
        <mxCell id="QXvSJGJw-SzTD2UhVWqt-1" value="1" style="ellipse;whiteSpace=wrap;html=1;fillColor=#d5e8d4;strokeColor=#82b366;strokeWidth=2;fontStyle=1;fontColor=#81b365;" parent="1" vertex="1">
          <mxGeometry x="234.5" y="64" width="30" height="30" as="geometry" />
        </mxCell>
        <mxCell id="QXvSJGJw-SzTD2UhVWqt-3" value="2" style="ellipse;whiteSpace=wrap;html=1;fillColor=#dae8fc;strokeColor=#6c8ebf;strokeWidth=2;fontStyle=1;fontColor=#6c8ebf;" parent="1" vertex="1">
          <mxGeometry x="234.5" y="204" width="30" height="30" as="geometry" />
        </mxCell>
        <mxCell id="QXvSJGJw-SzTD2UhVWqt-7" value="" style="shape=image;verticalLabelPosition=bottom;verticalAlign=top;imageAspect=0;aspect=fixed;image=data:image/svg+xml,PHN2ZyB4bWxuczp4bGluaz0iaHR0cDovL3d3dy53My5vcmcvMTk5OS94bGluayIgeG1sbnM9Imh0dHA6Ly93d3cudzMub3JnLzIwMDAvc3ZnIiBoZWlnaHQ9IjMwcHgiIHdpZHRoPSIzMHB4IiB2aWV3Qm94PSIwLDAsMjU2LDI1NiI+PGcgdHJhbnNmb3JtPSIiPjxnIHN0eWxlPSJtaXgtYmxlbmQtbW9kZTogbm9ybWFsIiB0ZXh0LWFuY2hvcj0ibm9uZSIgZm9udC1zaXplPSJub25lIiBmb250LXdlaWdodD0ibm9uZSIgZm9udC1mYW1pbHk9Im5vbmUiIHN0cm9rZS1kYXNob2Zmc2V0PSIwIiBzdHJva2UtZGFzaGFycmF5PSIiIHN0cm9rZS1taXRlcmxpbWl0PSIxMCIgc3Ryb2tlLWxpbmVqb2luPSJtaXRlciIgc3Ryb2tlLWxpbmVjYXA9ImJ1dHQiIHN0cm9rZS13aWR0aD0iMSIgc3Ryb2tlPSJub25lIiBmaWxsLXJ1bGU9Im5vbnplcm8iIGZpbGw9IiNmZjAwMDAiPjxnIHRyYW5zZm9ybT0ic2NhbGUoOC41MzMzMyw4LjUzMzMzKSI+PHBhdGggZD0iTTEzLDNjLTAuMjY3NTcsLTAuMDAzNjMgLTAuNTI1NDMsMC4xMDAxMiAtMC43MTU5MywwLjI4ODA1Yy0wLjE5MDUsMC4xODc5MyAtMC4yOTc3NCwwLjQ0NDM2IC0wLjI5Nzc0LDAuNzExOTVoLTUuOTg2MzNjLTAuMzYwNjQsLTAuMDA1MSAtMC42OTYwOCwwLjE4NDM4IC0wLjg3Nzg5LDAuNDk1ODdjLTAuMTgxODEsMC4zMTE1IC0wLjE4MTgxLDAuNjk2NzYgMCwxLjAwODI1YzAuMTgxODEsMC4zMTE1IDAuNTE3MjUsMC41MDA5NyAwLjg3Nzg5LDAuNDk1ODdoMThjMC4zNjA2NCwwLjAwNTEgMC42OTYwOCwtMC4xODQzOCAwLjg3Nzg5LC0wLjQ5NTg3YzAuMTgxODEsLTAuMzExNSAwLjE4MTgxLC0wLjY5Njc2IDAsLTEuMDA4MjVjLTAuMTgxODEsLTAuMzExNSAtMC41MTcyNSwtMC41MDA5NyAtMC44Nzc4OSwtMC40OTU4N2gtNS45ODYzM2MwLC0wLjI2NzU5IC0wLjEwNzI0LC0wLjUyNDAzIC0wLjI5Nzc0LC0wLjcxMTk1Yy0wLjE5MDUsLTAuMTg3OTMgLTAuNDQ4MzYsLTAuMjkxNjggLTAuNzE1OTMsLTAuMjg4MDV6TTYsOHYxNmMwLDEuMTA1IDAuODk1LDIgMiwyaDE0YzEuMTA1LDAgMiwtMC44OTUgMiwtMnYtMTZ6Ii8+PC9nPjwvZz48L2c+PC9zdmc+" parent="1" vertex="1">
          <mxGeometry x="34" y="84" width="42" height="42" as="geometry" />
        </mxCell>
        <mxCell id="QXvSJGJw-SzTD2UhVWqt-8" value="&lt;font color=&quot;#fe0000&quot;&gt;3&lt;/font&gt;" style="ellipse;whiteSpace=wrap;html=1;fillColor=#f8cecc;strokeColor=#fe0000;strokeWidth=2;fontStyle=1;" parent="1" vertex="1">
          <mxGeometry x="40" y="51" width="30" height="30" as="geometry" />
        </mxCell>
        <mxCell id="QXvSJGJw-SzTD2UhVWqt-9" value="&lt;font color=&quot;#fe0000&quot;&gt;Tree-Delete&lt;br&gt;Previous Data Set&lt;br&gt;from Active Cluster&lt;br&gt;&lt;/font&gt;" style="edgeLabel;html=1;align=center;verticalAlign=middle;resizable=0;points=[];fontSize=12;labelBackgroundColor=none;fontStyle=1;fontColor=#6c8ebf;" parent="1" vertex="1" connectable="0">
          <mxGeometry x="55.002802991529194" y="20.99818357125457" as="geometry" />
        </mxCell>
      </root>
    </mxGraphModel>
  </diagram>
</mxfile>
